<svg width="22" height="22" viewBox="0 0 22 22" fill="none" xmlns="http://www.w3.org/2000/svg">
<rect opacity="0.01" y="22" width="22" height="22" transform="rotate(-90 0 22)" fill="#04B4FC"/>
<path d="M4.58301 11.9166L15.4547 11.9166L12.1272 15.9132C11.8032 16.303 11.8565 16.8817 12.2463 17.2057C12.6362 17.5297 13.2148 17.4764 13.5388 17.0866L18.1222 11.5866C18.153 11.5428 18.1806 11.4969 18.2047 11.4491C18.2047 11.4032 18.2047 11.3757 18.2688 11.3299C18.3104 11.2248 18.3321 11.1129 18.333 10.9999C18.3321 10.8869 18.3104 10.775 18.2688 10.6699C18.2688 10.6241 18.2688 10.5966 18.2047 10.5507C18.1806 10.5029 18.153 10.457 18.1222 10.4132L13.5388 4.91322C13.3643 4.70373 13.1057 4.58278 12.833 4.58322C12.6188 4.5828 12.4113 4.6574 12.2463 4.79406C12.0589 4.94948 11.941 5.1731 11.9186 5.41558C11.8962 5.65807 11.9713 5.89948 12.1272 6.08656L15.4547 10.0832L4.58301 10.0832C4.07675 10.0832 3.66634 10.4936 3.66634 10.9999C3.66634 11.5062 4.07675 11.9166 4.58301 11.9166Z" fill="#04B4FC"/>
</svg>
