<svg width="18" height="18" viewBox="0 0 18 18" fill="none" xmlns="http://www.w3.org/2000/svg">
<rect opacity="0.01" width="18" height="18" fill="#1A1A1A"/>
<path d="M8.33266 17.25C8.24569 17.2499 8.1594 17.2347 8.07766 17.205C7.75312 17.0862 7.55181 16.761 7.59016 16.4175L8.16766 11.1H3.75016C3.4725 11.1004 3.21733 10.9474 3.08691 10.7023C2.95649 10.4572 2.97217 10.1601 3.12766 9.93002L9.04516 1.08002C9.23772 0.795064 9.59941 0.677591 9.92266 0.795019C10.2328 0.910151 10.4308 1.21487 10.4102 1.54502L9.83266 6.90002H14.2502C14.5278 6.8996 14.783 7.05261 14.9134 7.29774C15.0438 7.54286 15.0281 7.83998 14.8727 8.07002L8.95516 16.92C8.81545 17.1267 8.58213 17.2504 8.33266 17.25Z" fill="#1A1A1A"/>
</svg>
