<svg width="24" height="24" viewBox="0 0 24 24" fill="none" xmlns="http://www.w3.org/2000/svg">
<path d="M1.72754 9.571C1.72754 10.2197 1.98524 10.8419 2.44396 11.3006C2.90267 11.7593 3.52482 12.017 4.17354 12.017C4.82226 12.017 5.44441 11.7593 5.90312 11.3006C6.36184 10.8419 6.61954 10.2197 6.61954 9.571C6.61954 8.92228 6.36184 8.30013 5.90312 7.84142C5.44441 7.3827 4.82226 7.125 4.17354 7.125C3.52482 7.125 2.90267 7.3827 2.44396 7.84142C1.98524 8.30013 1.72754 8.92228 1.72754 9.571ZM17.3795 9.571C17.3795 9.89221 17.4428 10.2103 17.5657 10.507C17.6887 10.8038 17.8688 11.0735 18.096 11.3006C18.3231 11.5277 18.5927 11.7079 18.8895 11.8308C19.1863 11.9537 19.5043 12.017 19.8255 12.017C20.1468 12.017 20.4648 11.9537 20.7616 11.8308C21.0583 11.7079 21.328 11.5277 21.5551 11.3006C21.7823 11.0735 21.9624 10.8038 22.0853 10.507C22.2083 10.2103 22.2715 9.89221 22.2715 9.571C22.2715 8.92228 22.0138 8.30013 21.5551 7.84142C21.0964 7.3827 20.4743 7.125 19.8255 7.125C19.1768 7.125 18.5547 7.3827 18.096 7.84142C17.6372 8.30013 17.3795 8.92228 17.3795 9.571Z" stroke="#04B4FC" stroke-width="1.5" stroke-linecap="round" stroke-linejoin="round"/>
<path d="M16.3998 23.1251V16.3911C15.1712 16.2774 14.0023 15.8083 13.0361 15.0412C12.0698 14.274 11.3479 13.2419 10.9588 12.0711L10.1168 9.54606C10.0496 9.34351 10.0273 9.12877 10.0515 8.91674C10.0756 8.70471 10.1457 8.50049 10.2567 8.31826C10.3678 8.13604 10.5172 7.98017 10.6945 7.8615C10.8719 7.74283 11.0729 7.66419 11.2838 7.63106C11.6387 7.58659 11.9979 7.6687 12.2982 7.86295C12.5985 8.0572 12.8208 8.35114 12.9258 8.69306L13.7438 11.1461C13.971 11.8273 14.4069 12.4198 14.9897 12.8394C15.5725 13.2591 16.2726 13.4846 16.9908 13.4841H21.2908C21.5478 13.4839 21.8023 13.5344 22.0397 13.6326C22.2772 13.7309 22.493 13.8749 22.6749 14.0565C22.8567 14.2382 23.0009 14.4538 23.0994 14.6912C23.1979 14.9286 23.2486 15.1831 23.2488 15.4401V23.1301" stroke="#04B4FC" stroke-width="1.5" stroke-linecap="round" stroke-linejoin="round"/>
<path d="M10.453 10.548L10.253 11.142C10.0262 11.825 9.58963 12.419 9.00557 12.8395C8.42151 13.26 7.71968 13.4855 7 13.484H2.705C2.1871 13.4843 1.69045 13.6899 1.32396 14.0558C0.957467 14.4218 0.751059 14.9181 0.75 15.436V23.125M7.6 23.125V16.391C8.45718 16.3115 9.28925 16.0586 10.0456 15.6475C10.802 15.2365 11.467 14.676 12 14M11.5 0.875V2.875M15.414 2.96L14 4.376M7.586 2.96L9 4.376" stroke="#04B4FC" stroke-width="1.5" stroke-linecap="round" stroke-linejoin="round"/>
</svg>
