<svg width="24" height="24" viewBox="0 0 24 24" fill="none" xmlns="http://www.w3.org/2000/svg">
<path d="M24 1.5V22.5H0V1.5H4.5V0H6V1.5H18V0H19.5V1.5H24ZM1.5 3V6H22.5V3H19.5V4.5H18V3H6V4.5H4.5V3H1.5ZM22.5 21V7.5H1.5V21H22.5ZM16.5 10.5V18H15V12.3047C14.7891 12.4141 14.5469 12.5156 14.2734 12.6094C14 12.7031 13.7422 12.75 13.5 12.75V11.25C13.5938 11.25 13.7148 11.2266 13.8633 11.1797C14.0117 11.1328 14.1641 11.0742 14.3203 11.0039C14.4766 10.9336 14.6172 10.8516 14.7422 10.7578C14.8672 10.6641 14.9531 10.582 15 10.5117V10.5H16.5ZM12 12.75C12 13.0547 11.957 13.3281 11.8711 13.5703C11.7852 13.8125 11.6641 14.0391 11.5078 14.25C11.3516 14.4609 11.1797 14.6602 10.9922 14.8477C10.8047 15.0352 10.6055 15.2148 10.3945 15.3867C10.1836 15.5586 9.98438 15.7383 9.79688 15.9258C9.60938 16.1133 9.42578 16.3047 9.24609 16.5H12V18H7.5V17.5781C7.5 17.4297 7.49609 17.2812 7.48828 17.1328C7.48047 16.9844 7.49609 16.8359 7.53516 16.6875C7.57422 16.5391 7.61328 16.3984 7.65234 16.2656C7.73828 16.0547 7.86719 15.8477 8.03906 15.6445C8.21094 15.4414 8.40625 15.2344 8.625 15.0234C8.84375 14.8125 9.05859 14.6133 9.26953 14.4258C9.48047 14.2383 9.67969 14.0469 9.86719 13.8516C10.0547 13.6562 10.207 13.4727 10.3242 13.3008C10.4414 13.1289 10.5 12.9453 10.5 12.75C10.5 12.5391 10.4258 12.3633 10.2773 12.2227C10.1289 12.082 9.95312 12.0078 9.75 12C9.57031 12 9.41406 12.0547 9.28125 12.1641C9.14844 12.2734 9.05859 12.418 9.01172 12.5977L7.54688 12.293C7.59375 12.0352 7.68359 11.7969 7.81641 11.5781C7.94922 11.3594 8.12109 11.1719 8.33203 11.0156C8.54297 10.8594 8.76562 10.7344 9 10.6406C9.23438 10.5469 9.48438 10.5 9.75 10.5C10.0625 10.5 10.3555 10.5586 10.6289 10.6758C10.9023 10.793 11.1406 10.9531 11.3438 11.1562C11.5469 11.3594 11.707 11.5977 11.8242 11.8711C11.9414 12.1445 12 12.4375 12 12.75Z" fill="#04B4FC"/>
</svg>
