<svg width="24" height="24" viewBox="0 0 24 24" fill="none" xmlns="http://www.w3.org/2000/svg">
<path fill-rule="evenodd" clip-rule="evenodd" d="M11.5365 15.0375C11.3469 15.0591 11.1563 15.0697 10.9655 15.0695H8V17.5C8 17.5 7.597 17.4185 7 17.1885C5.293 16.532 2 14.665 2 10.035C2 7.255 4.254 5 7.035 5H10.965C13.391 5 15.4165 6.716 15.8935 9H17.9725C19.0407 9.00013 20.0651 9.42457 20.8204 10.18C21.5757 10.9353 22 11.9598 22 13.028C22 16.6675 19.086 18.173 17.5 18.7225C16.9075 18.928 16.5 19 16.5 19V17.0555H15.028C14.32 17.056 13.6243 16.8696 13.0113 16.5153C12.3983 16.161 11.8896 15.6512 11.5365 15.0375ZM7 14.0695V16.107C6.50185 15.8884 6.02794 15.6182 5.586 15.301C4.291 14.3645 3 12.777 3 10.0345C3.00013 8.96444 3.42531 7.93825 4.182 7.18165C4.9387 6.42505 5.96494 6 7.035 6H10.965C11.9942 6.00002 12.9845 6.39331 13.7333 7.09942C14.482 7.80553 14.9327 8.77107 14.993 9.7985C14.991 9.84283 14.9882 9.88683 14.9845 9.9305C14.9323 10.5993 14.7467 11.2509 14.4387 11.8469C14.1307 12.4429 13.7064 12.9711 13.191 13.4005C12.5313 13.838 11.7571 14.0708 10.9655 14.0695H7ZM13.7875 14.2045C13.4435 14.4868 13.0692 14.73 12.6715 14.9295C12.9552 15.2813 13.3142 15.5651 13.722 15.7599C14.1298 15.9548 14.576 16.0558 15.028 16.0555H17.5V17.656C17.9232 17.4892 18.3304 17.2841 18.7165 17.0435C19.9 16.296 21 15.082 21 13.028C21 12.225 20.681 11.4549 20.1133 10.8871C19.5455 10.3192 18.7755 10.0001 17.9725 10H16V10.035C16 11.7695 15.1225 13.299 13.7875 14.2045Z" fill="#04B4FC"/>
</svg>
