<svg width="24" height="24" viewBox="0 0 24 24" fill="none" xmlns="http://www.w3.org/2000/svg">
<path d="M6.002 22.5C5.30867 22.5 4.71833 22.2573 4.231 21.772C3.74367 21.2867 3.5 20.6967 3.5 20.002C3.5 19.3073 3.74333 18.717 4.23 18.231C4.71667 17.745 5.30667 17.5013 6 17.5C6.19467 17.5 6.39867 17.5283 6.612 17.585C6.82467 17.641 7.02267 17.717 7.206 17.813L9.746 14.653C9.382 14.265 9.134 13.8357 9.002 13.365C8.87 12.8943 8.84733 12.4177 8.934 11.935L5.198 10.702C4.97867 11.0927 4.67633 11.4067 4.291 11.644C3.90567 11.8813 3.47533 12 3 12C2.30533 12 1.71533 11.7573 1.23 11.272C0.743333 10.786 0.5 10.196 0.5 9.502C0.5 8.808 0.743 8.21767 1.229 7.731C1.715 7.24433 2.30433 7.00067 2.997 7C3.68967 6.99933 4.28 7.24267 4.768 7.73C5.25533 8.21533 5.499 8.80533 5.499 9.5C5.499 9.58467 5.49567 9.65 5.489 9.696C5.48233 9.74267 5.479 9.78867 5.479 9.834L9.197 11.131C9.415 10.7103 9.72633 10.343 10.131 10.029C10.5357 9.715 11.011 9.51233 11.557 9.421V5.458C10.9197 5.338 10.4173 5.04133 10.05 4.568C9.68267 4.09467 9.49933 3.56933 9.5 2.992C9.5 2.30533 9.743 1.71833 10.229 1.231C10.715 0.743667 11.3047 0.5 11.998 0.5C12.6913 0.5 13.2817 0.743333 13.769 1.23C14.2563 1.71667 14.5 2.30667 14.5 3C14.5 3.572 14.3153 4.09467 13.946 4.568C13.5767 5.04133 13.0753 5.338 12.442 5.458V9.42C12.9887 9.51133 13.461 9.714 13.859 10.028C14.257 10.342 14.5713 10.7093 14.802 11.13L18.519 9.834C18.5063 9.77467 18.5 9.725 18.5 9.685V9.5C18.5 8.80533 18.743 8.21533 19.229 7.73C19.7143 7.24333 20.304 7 20.998 7C21.692 7 22.2823 7.243 22.769 7.729C23.2557 8.215 23.4993 8.80467 23.5 9.498C23.5007 10.1913 23.2573 10.7817 22.77 11.269C22.2853 11.7563 21.6953 12 21 12C20.5293 12 20.0993 11.8813 19.71 11.644C19.3207 11.4067 19.018 11.0927 18.802 10.702L15.065 11.935C15.1523 12.4177 15.13 12.8933 14.998 13.362C14.866 13.8307 14.618 14.255 14.254 14.635L16.794 17.789C16.9773 17.705 17.1757 17.636 17.389 17.582C17.6023 17.528 17.8057 17.5007 17.999 17.5C18.6937 17.5 19.2843 17.743 19.771 18.229C20.257 18.7143 20.5 19.304 20.5 19.998C20.5 20.692 20.2573 21.2823 19.772 21.769C19.2867 22.2557 18.6967 22.4993 18.002 22.5C17.3073 22.5007 16.717 22.2573 16.231 21.77C15.7437 21.2853 15.5 20.6953 15.5 20C15.5 19.7027 15.5477 19.4163 15.643 19.141C15.7383 18.8663 15.897 18.6103 16.119 18.373L13.579 15.175C13.1263 15.4683 12.6023 15.615 12.007 15.615C11.4117 15.615 10.8813 15.4683 10.416 15.175L7.88 18.373C8.08867 18.6103 8.244 18.8667 8.346 19.142C8.448 19.4167 8.499 19.7027 8.499 20C8.499 20.6947 8.25633 21.2847 7.771 21.77C7.285 22.2567 6.696 22.5 6.002 22.5ZM3 11C3.41133 11 3.76433 10.853 4.059 10.559C4.353 10.2643 4.5 9.91133 4.5 9.5C4.5 9.08867 4.353 8.73567 4.059 8.441C3.765 8.14633 3.412 7.99933 3 8C2.588 8.00067 2.235 8.14767 1.941 8.441C1.647 8.73567 1.5 9.08867 1.5 9.5C1.5 9.91133 1.647 10.2643 1.941 10.559C2.235 10.8537 2.588 11.0007 3 11ZM6 21.5C6.41133 21.5 6.76433 21.353 7.059 21.059C7.353 20.7643 7.5 20.4113 7.5 20C7.5 19.5887 7.353 19.2357 7.059 18.941C6.76433 18.647 6.41133 18.5 6 18.5C5.58867 18.5 5.23567 18.647 4.941 18.941C4.647 19.2357 4.5 19.5887 4.5 20C4.5 20.4113 4.647 20.7643 4.941 21.059C5.23567 21.353 5.58867 21.5 6 21.5ZM12 4.5C12.4113 4.5 12.7643 4.353 13.059 4.059C13.353 3.76433 13.5 3.41133 13.5 3C13.5 2.58867 13.353 2.23567 13.059 1.941C12.765 1.64633 12.412 1.49933 12 1.5C11.588 1.50067 11.235 1.64767 10.941 1.941C10.647 2.23433 10.5 2.58733 10.5 3C10.5 3.41267 10.647 3.76567 10.941 4.059C11.235 4.35233 11.588 4.49933 12 4.5ZM12 14.616C12.5847 14.616 13.0833 14.4093 13.496 13.996C13.9087 13.5827 14.1153 13.084 14.116 12.5C14.1167 11.916 13.91 11.4173 13.496 11.004C13.082 10.5907 12.5833 10.384 12 10.384C11.4167 10.384 10.918 10.5907 10.504 11.004C10.09 11.4173 9.88333 11.916 9.884 12.5C9.88467 13.084 10.0913 13.5827 10.504 13.996C10.9167 14.4093 11.4153 14.616 12 14.616ZM18 21.5C18.4113 21.5 18.7643 21.353 19.059 21.059C19.353 20.7643 19.5 20.4113 19.5 20C19.5 19.5887 19.353 19.2357 19.059 18.941C18.7643 18.647 18.4113 18.5 18 18.5C17.5887 18.5 17.2357 18.647 16.941 18.941C16.647 19.2357 16.5 19.5887 16.5 20C16.5 20.4113 16.647 20.7643 16.941 21.059C17.2357 21.353 17.5887 21.5 18 21.5ZM21 11C21.4113 11 21.7643 10.853 22.059 10.559C22.353 10.2643 22.5 9.91133 22.5 9.5C22.5 9.08867 22.353 8.73567 22.059 8.441C21.765 8.14633 21.412 7.99933 21 8C20.588 8.00067 20.235 8.14767 19.941 8.441C19.647 8.73567 19.5 9.08867 19.5 9.5C19.5 9.91133 19.647 10.2643 19.941 10.559C20.235 10.8537 20.588 11.0007 21 11Z" fill="#04B4FC"/>
</svg>
