<svg width="46" height="46" viewBox="0 0 46 46" fill="none" xmlns="http://www.w3.org/2000/svg">
<circle cx="23" cy="23" r="23" fill="#E4F8FF"/>
<rect opacity="0.01" x="35" y="35" width="24" height="24" transform="rotate(180 35 35)" fill="#04B4FC"/>
<path d="M28 14.4999C28 14.2238 27.7761 13.9999 27.5 13.9999H25C22.3793 13.8694 20.1453 15.88 20 18.4999V21.1999H17.5C17.2239 21.1999 17 21.4238 17 21.6999V24.2999C17 24.5761 17.2239 24.7999 17.5 24.7999H20V31.4999C20 31.7761 20.2239 31.9999 20.5 31.9999H23.5C23.7761 31.9999 24 31.7761 24 31.4999V24.7999H26.62C26.8487 24.8032 27.0505 24.6508 27.11 24.4299L27.83 21.8299C27.8703 21.6802 27.8389 21.5202 27.7449 21.3969C27.6509 21.2735 27.5051 21.2008 27.35 21.1999H24V18.4999C24.0515 17.987 24.4845 17.5973 25 17.5999H27.5C27.7761 17.5999 28 17.3761 28 17.0999V14.4999Z" fill="#04B4FC"/>
</svg>
