<svg width="46" height="46" viewBox="0 0 46 46" fill="none" xmlns="http://www.w3.org/2000/svg">
<circle cx="23" cy="23" r="23" fill="#E4F8FF"/>
<path opacity="0.01" d="M11 11H35V35H11" fill="#04B4FC"/>
<path d="M28.4996 25C27.9017 27.0801 26.1413 28.6175 23.9996 28.93C22.3428 29.1704 20.6595 28.7249 19.3385 27.6963C18.0175 26.6678 17.1729 25.1452 16.9996 23.48C16.8654 21.8073 17.4377 20.1548 18.5778 18.9235C19.7179 17.6922 21.3216 16.9946 22.9996 17C23.7774 17.0011 24.5478 17.1504 25.2696 17.44C25.5052 17.5457 25.7825 17.4547 25.9096 17.23L27.3496 14.58C27.4122 14.4567 27.4232 14.3136 27.38 14.1822C27.3369 14.0509 27.2432 13.9421 27.1196 13.88C23.9761 12.4567 20.321 12.7547 17.4495 14.6684C14.578 16.582 12.896 19.8408 12.9996 23.29C13.2039 28.5122 17.351 32.7199 22.5696 33C28.0609 33.2435 32.7192 29.0094 32.9996 23.52V21.52C32.9943 21.2461 32.7735 21.0253 32.4996 21.02H23.4996C23.2235 21.02 22.9996 21.2438 22.9996 21.52V24.52C22.9996 24.7961 23.2235 25.02 23.4996 25.02H28.4996" fill="#04B4FC"/>
</svg>
