<svg width="46" height="46" viewBox="0 0 46 46" fill="none" xmlns="http://www.w3.org/2000/svg">
<circle cx="23" cy="23" r="23" fill="#E4F8FF"/>
<rect opacity="0.01" x="35" y="34" width="24" height="24" transform="rotate(180 35 34)" fill="#04B4FC"/>
<path d="M26.1498 18.3999C24.6019 18.3946 23.1154 19.0051 22.018 20.0969C20.9206 21.1886 20.3025 22.672 20.2998 24.2199V30.0999C20.2998 30.3386 20.3946 30.5675 20.5634 30.7363C20.7322 30.9051 20.9611 30.9999 21.1998 30.9999H23.2998C23.7969 30.9999 24.1998 30.597 24.1998 30.0999V24.2199C24.1994 23.6686 24.4336 23.1432 24.8439 22.7749C25.2541 22.4066 25.8017 22.2303 26.3498 22.2899C27.3558 22.4166 28.1078 23.2761 28.0998 24.2899V30.0999C28.0998 30.597 28.5027 30.9999 28.9998 30.9999H31.0998C31.5969 30.9999 31.9998 30.597 31.9998 30.0999V24.2199C31.9972 22.672 31.379 21.1886 30.2816 20.0969C29.1843 19.0051 27.6977 18.3946 26.1498 18.3999Z" fill="#04B4FC"/>
<rect x="14" y="19.3" width="4.5" height="11.7" rx="0.9" fill="#04B4FC"/>
<circle cx="16.25" cy="15.25" r="2.25" fill="#04B4FC"/>
</svg>
